<?xml version="1.0" encoding="utf-8"?>
<!-- Generator: Adobe Illustrator 16.0.0, SVG Export Plug-In . SVG Version: 6.00 Build 0)  -->
<!DOCTYPE svg PUBLIC "-//W3C//DTD SVG 1.1//EN" "http://www.w3.org/Graphics/SVG/1.1/DTD/svg11.dtd">
<svg version="1.1" id="Calque_1" xmlns="http://www.w3.org/2000/svg" xmlns:xlink="http://www.w3.org/1999/xlink" x="0px" y="0px"
	 width="30px" height="30px" viewBox="0 0 30 30" enable-background="new 0 0 30 30" xml:space="preserve">
<g>
	<path fill="#201D1D" d="M19.12,5.61c0.21,0,0.42,0,0.63,0c0.02,0,0.05,0.01,0.07,0.01c1.16,0.1,2.16,0.57,2.98,1.39
		c0.07,0.07,0.14,0.09,0.24,0.07c0.95-0.21,1.85-0.55,2.7-1.03c0.04-0.02,0.07-0.04,0.11-0.06c0.03-0.02,0.06-0.01,0.04,0.03
		c0,0.02-0.01,0.05-0.02,0.07c-0.36,1-0.99,1.8-1.88,2.39c-0.03,0.02-0.07,0.03-0.09,0.08c0.91-0.11,1.77-0.36,2.62-0.72
		c-0.01,0.03-0.01,0.04-0.01,0.04c-0.02,0.03-0.04,0.06-0.05,0.08c-0.6,0.87-1.33,1.62-2.17,2.24c-0.07,0.05-0.1,0.11-0.1,0.2
		c0.02,0.31,0.02,0.62,0.01,0.92c-0.02,0.65-0.09,1.3-0.21,1.94c-0.59,3-1.95,5.57-4.19,7.67c-0.81,0.76-1.71,1.39-2.68,1.91
		c-1.71,0.91-3.54,1.39-5.47,1.5c-0.16,0.01-0.33,0-0.5,0.03c-0.28,0-0.55,0-0.83,0c-0.04,0-0.07-0.01-0.11-0.01
		c-0.42-0.01-0.83-0.05-1.24-0.1c-1.94-0.26-3.74-0.91-5.4-1.94c-0.03-0.02-0.06-0.03-0.08-0.08c1.25,0.13,2.47,0.05,3.67-0.29
		c1.2-0.33,2.29-0.88,3.26-1.65c-0.02-0.01-0.05-0.02-0.07-0.02c-0.3-0.01-0.6-0.05-0.89-0.13c-1.02-0.25-1.87-0.78-2.55-1.58
		c-0.37-0.44-0.65-0.94-0.83-1.48c-0.03-0.1-0.03-0.11,0.07-0.09c0.42,0.07,0.84,0.09,1.27,0.04c0.24-0.03,0.47-0.06,0.71-0.13
		c-0.02-0.03-0.05-0.03-0.07-0.03c-1.32-0.32-2.32-1.07-3.02-2.23c-0.43-0.71-0.63-1.5-0.66-2.33c0-0.12,0.01-0.13,0.12-0.08
		c0.5,0.26,1.04,0.43,1.6,0.5c0.12,0.01,0.24,0.04,0.38,0.02c-0.02-0.02-0.03-0.03-0.05-0.04c-0.2-0.14-0.38-0.29-0.55-0.45
		c-1.03-1.02-1.52-2.25-1.45-3.7c0.03-0.7,0.23-1.36,0.55-1.98c0.08-0.15,0.08-0.15,0.19-0.02C5.89,7.47,6.71,8.24,7.64,8.9
		c1.34,0.96,2.8,1.66,4.39,2.08c0.88,0.24,1.78,0.37,2.69,0.43c0.09,0,0.1-0.01,0.08-0.11c-0.12-0.58-0.13-1.17-0.03-1.75
		c0.3-1.88,1.81-3.46,3.67-3.85C18.66,5.66,18.89,5.64,19.12,5.61z"/>
</g>
</svg>
