<?xml version="1.0" encoding="utf-8"?>
<!-- Generator: Adobe Illustrator 16.0.0, SVG Export Plug-In . SVG Version: 6.00 Build 0)  -->
<!DOCTYPE svg PUBLIC "-//W3C//DTD SVG 1.1//EN" "http://www.w3.org/Graphics/SVG/1.1/DTD/svg11.dtd">
<svg version="1.1" xmlns="http://www.w3.org/2000/svg" xmlns:xlink="http://www.w3.org/1999/xlink" x="0px" y="0px" width="30px"
	 height="30px" viewBox="0 0 30 30" enable-background="new 0 0 30 30" xml:space="preserve">
<g id="layout">
</g>
<g id="nav__x2B__footer">
	<g>
		<g id="y6s0Uq.tif_2_">
			<g>
				<path fill="#201D1D" d="M26.52,13.59c0,1,0,2,0,3c-0.02,0.2-0.04,0.39-0.06,0.59c-0.05,0.94-0.12,1.88-0.31,2.8
					c-0.3,1.49-1.21,2.39-2.71,2.63c-1.72,0.28-3.46,0.31-5.2,0.33c-2.31,0.02-4.62,0.02-6.93,0c-1.61-0.02-3.22-0.06-4.81-0.33
					c-1.48-0.26-2.43-1.24-2.71-2.71c-0.19-1.01-0.21-2.04-0.31-3.06c0-1.23,0-2.46,0-3.68c0.08-0.87,0.16-1.73,0.24-2.6
					C3.91,8.48,5.1,7.71,6.37,7.42c0.49-0.11,0.99-0.15,1.48-0.19c2.49-0.21,4.99-0.19,7.48-0.19c2.5,0,4.99,0.03,7.48,0.27
					c0.77,0.08,1.53,0.19,2.17,0.68c0.77,0.59,1.06,1.42,1.22,2.33C26.39,11.4,26.42,12.5,26.52,13.59z M12.84,15.01
					c0,1,0.01,2,0,2.99c0,0.34,0.07,0.41,0.38,0.22c1.62-1.01,3.25-2.01,4.88-3c0.24-0.15,0.32-0.24,0.02-0.42
					c-1.65-1-3.28-2.01-4.92-3.02c-0.28-0.17-0.37-0.13-0.37,0.2C12.85,12.99,12.84,14,12.84,15.01z"/>
			</g>
		</g>
	</g>
</g>
<g id="Menu_ouvert">
</g>
</svg>
