<?xml version="1.0" encoding="utf-8"?>
<!-- Generator: Adobe Illustrator 16.0.0, SVG Export Plug-In . SVG Version: 6.00 Build 0)  -->
<!DOCTYPE svg PUBLIC "-//W3C//DTD SVG 1.1//EN" "http://www.w3.org/Graphics/SVG/1.1/DTD/svg11.dtd">
<svg version="1.1" id="Calque_1" xmlns="http://www.w3.org/2000/svg" xmlns:xlink="http://www.w3.org/1999/xlink" x="0px" y="0px"
	 width="30px" height="30px" viewBox="0 0 30 30" enable-background="new 0 0 30 30" xml:space="preserve">
<g id="GSwHJx.tif">
	<g>
		<path d="M5,19.88c0-3.25,0-6.51,0-9.77c0.03-0.2,0.05-0.41,0.1-0.61c0.51-2.27,1.88-3.72,4.12-4.34c0.29-0.08,0.6-0.11,0.9-0.16
			c3.26,0,6.51,0,9.77,0c0.2,0.03,0.41,0.05,0.61,0.1c2.27,0.51,3.72,1.88,4.34,4.12c0.08,0.29,0.11,0.6,0.16,0.9
			c0,3.25,0,6.51,0,9.77c-0.03,0.2-0.05,0.41-0.1,0.61c-0.51,2.27-1.88,3.72-4.12,4.34c-0.29,0.08-0.6,0.11-0.9,0.16
			c-3.25,0-6.51,0-9.77,0c-0.2-0.03-0.41-0.05-0.61-0.1c-2.27-0.51-3.72-1.88-4.34-4.12C5.08,20.49,5.05,20.18,5,19.88z M15.01,6.77
			c-1.44,0-2.89,0-4.33,0c-0.46,0-0.91,0.04-1.34,0.2c-1.59,0.56-2.55,1.93-2.55,3.66c0,2.91,0,5.82,0,8.73
			c0,0.45,0.05,0.89,0.2,1.32c0.57,1.58,1.93,2.54,3.65,2.54c2.92,0,5.83,0.01,8.75-0.01c0.44,0,0.89-0.07,1.3-0.2
			c1.59-0.54,2.54-1.91,2.55-3.62c0.01-2.93,0-5.86,0-8.79c0-1.31-0.52-2.37-1.59-3.14c-0.68-0.5-1.46-0.69-2.29-0.69
			C17.9,6.78,16.45,6.77,15.01,6.77z"/>
		<path fill-rule="evenodd" clip-rule="evenodd" d="M20.15,15.01c-0.01,2.84-2.34,5.16-5.17,5.15c-2.84-0.01-5.16-2.35-5.14-5.17
			c0.02-2.84,2.33-5.14,5.16-5.14C17.83,9.85,20.16,12.18,20.15,15.01z M18.38,14.99c-0.01-1.87-1.53-3.38-3.38-3.37
			c-1.87,0.01-3.38,1.53-3.37,3.38c0.01,1.87,1.53,3.38,3.38,3.37C16.88,18.36,18.39,16.85,18.38,14.99z"/>
		<path fill-rule="evenodd" clip-rule="evenodd" d="M20.36,8.35c0.72-0.01,1.31,0.58,1.31,1.3c0,0.71-0.58,1.29-1.29,1.3
			c-0.72,0-1.31-0.59-1.31-1.3C19.07,8.94,19.65,8.35,20.36,8.35z"/>
	</g>
</g>
</svg>
