<?xml version="1.0" encoding="utf-8"?>
<!-- Generator: Adobe Illustrator 16.0.0, SVG Export Plug-In . SVG Version: 6.00 Build 0)  -->
<!DOCTYPE svg PUBLIC "-//W3C//DTD SVG 1.1//EN" "http://www.w3.org/Graphics/SVG/1.1/DTD/svg11.dtd">
<svg version="1.1" id="Calque_1" xmlns="http://www.w3.org/2000/svg" xmlns:xlink="http://www.w3.org/1999/xlink" x="0px" y="0px"
	 width="30px" height="30px" viewBox="0 0 30 30" enable-background="new 0 0 30 30" xml:space="preserve">
<g id="rjFYy3.tif_5_">
	<g>
		<path fill-rule="evenodd" clip-rule="evenodd" fill="#201D1D" d="M11.91,24.49c-0.01-0.1-0.02-0.2-0.02-0.3
			c0-2.24,0-4.47,0.02-6.71c0.02-1.5,0.01-2.99,0.02-4.49c0-0.36-0.01-0.72-0.03-1.08c-0.01-0.19,0.07-0.25,0.26-0.25
			c1.27,0.01,2.53,0.01,3.8,0c0.19,0,0.25,0.07,0.25,0.26c-0.01,0.47,0,0.95,0,1.47c0.17-0.21,0.3-0.4,0.45-0.57
			c0.76-0.89,1.74-1.33,2.89-1.43c0.9-0.07,1.77,0.04,2.59,0.41c1.35,0.61,2.11,1.71,2.5,3.1c0.13,0.47,0.19,0.96,0.26,1.45
			c0,2.66,0,5.32,0,7.97c0,0.16-0.03,0.19-0.19,0.19c-1.35-0.01-2.71,0-4.06,0c-0.06-0.12-0.04-0.26-0.04-0.39c0-2.11,0-4.22,0-6.33
			c0-0.51-0.03-1.01-0.16-1.5c-0.41-1.45-2.08-1.99-3.28-1.07c-0.64,0.5-0.97,1.16-0.97,1.97c0,2.33,0,4.65,0,6.98
			c0,0.12-0.01,0.23-0.01,0.35C14.77,24.49,13.34,24.49,11.91,24.49z"/>
		<path fill-rule="evenodd" clip-rule="evenodd" fill="#201D1D" d="M5.32,24.49c0-0.1-0.01-0.2-0.01-0.3c0-4.05,0-8.09,0-12.14
			c0-0.39,0-0.39,0.39-0.39c1.21,0,2.41,0.01,3.62,0c0.23,0,0.3,0.07,0.3,0.3c0,4.11,0,8.22,0,12.32c0,0.07-0.01,0.14-0.01,0.21
			C8.18,24.49,6.75,24.49,5.32,24.49z"/>
		<path fill-rule="evenodd" clip-rule="evenodd" fill="#201D1D" d="M7.81,5.5C8.34,5.6,8.85,5.76,9.25,6.16
			c1,0.99,0.9,2.94-0.7,3.59c-0.97,0.39-1.91,0.32-2.75-0.37C5.41,9.08,5.22,8.64,5.09,8.18c0-0.31,0-0.61,0-0.92
			c0.17-0.54,0.42-1.02,0.92-1.33C6.36,5.69,6.75,5.58,7.16,5.5C7.38,5.5,7.59,5.5,7.81,5.5z"/>
	</g>
</g>
</svg>
