<?xml version="1.0" encoding="utf-8"?>
<!-- Generator: Adobe Illustrator 16.0.0, SVG Export Plug-In . SVG Version: 6.00 Build 0)  -->
<!DOCTYPE svg PUBLIC "-//W3C//DTD SVG 1.1//EN" "http://www.w3.org/Graphics/SVG/1.1/DTD/svg11.dtd">
<svg version="1.1" id="Calque_1" xmlns="http://www.w3.org/2000/svg" xmlns:xlink="http://www.w3.org/1999/xlink" x="0px" y="0px"
	 width="30px" height="30px" viewBox="0 0 30 30" enable-background="new 0 0 30 30" xml:space="preserve">
<g id="kVbl8e.tif_4_">
	<g>
		<path fill="#201D1D" d="M18.1,4.99c0.69,0,1.38,0.03,2.06-0.01c0.37-0.02,0.51,0.07,0.43,0.44c-0.02,0.15-0.04,0.3-0.05,0.46
			c-0.03,0.85-0.06,1.7-0.07,2.55c0,0.3-0.12,0.4-0.41,0.37c-0.66-0.06-1.32,0.01-1.98,0.04c-0.83,0.04-1.29,0.55-1.3,1.38
			c-0.01,0.77-0.01,1.54-0.01,2.31c0,0.45,0.02,0.46,0.46,0.47c0.96,0.02,1.92-0.01,2.87,0.05c0.27,0.02,0.35,0.11,0.31,0.38
			c-0.15,1.04-0.3,2.08-0.43,3.12c-0.04,0.31-0.18,0.39-0.46,0.39c-0.71-0.01-1.42,0-2.13,0c-0.61,0-0.61,0-0.62,0.6
			c-0.02,2.34-0.05,4.68-0.06,7.03c0,0.33-0.1,0.47-0.45,0.46c-1-0.01-2.01-0.01-3.02,0c-0.3,0-0.42-0.11-0.42-0.42
			c-0.01-1.81-0.04-3.62-0.07-5.43c-0.01-0.6-0.03-1.21-0.03-1.81c0-0.32-0.15-0.43-0.46-0.42c-0.84,0.01-1.68,0-2.52,0
			c-0.22,0-0.36-0.05-0.35-0.32c0.05-1.07,0-2.15,0.08-3.23c0.02-0.31,0.13-0.41,0.43-0.4c0.79,0.01,1.59,0,2.38,0
			c0.46,0,0.47-0.02,0.48-0.48c0.02-1.09-0.06-2.17,0.07-3.26c0.27-2.16,1.51-3.54,3.62-4.02C17,5.11,17.55,5.09,18.1,4.99z"/>
	</g>
</g>
</svg>
